<svg width="40" height="40" viewBox="0 0 40 40" fill="none" xmlns="http://www.w3.org/2000/svg">
<rect x="0.5" y="0.5" width="39" height="39" rx="19.5" stroke="#C37B6B"/>
<g clip-path="url(#clip0_876_404)">
<path d="M12.7746 26.4856C13.8246 27.75 15.7776 27.75 19.6853 27.75H20.3153C24.2231 27.75 26.177 27.75 27.227 26.4856M12.7746 26.4856C11.7246 25.2204 12.0851 23.3006 12.8052 19.4594C13.3171 16.7294 13.5726 15.3635 14.5447 14.5567M27.227 26.4856C28.277 25.2204 27.9165 23.3006 27.1963 19.4594C26.6845 16.7294 26.4281 15.3635 25.456 14.5567M25.456 14.5567C24.4847 13.75 23.0943 13.75 20.3162 13.75H19.6845C16.9063 13.75 15.5168 13.75 14.5447 14.5567" stroke="#C37B6B"/>
<path d="M17.375 13.75V12.875C17.375 12.1788 17.6516 11.5111 18.1438 11.0188C18.6361 10.5266 19.3038 10.25 20 10.25C20.6962 10.25 21.3639 10.5266 21.8562 11.0188C22.3484 11.5111 22.625 12.1788 22.625 12.875V13.75" stroke="#C37B6B" stroke-linecap="round"/>
</g>
<defs>
<clipPath id="clip0_876_404">
<rect width="21" height="21" fill="white" transform="translate(9.5 9.5)"/>
</clipPath>
</defs>
</svg>
