<svg width="40" height="40" viewBox="0 0 40 40" fill="none" xmlns="http://www.w3.org/2000/svg">
<rect width="40" height="40" rx="20" fill="#C37B6B"/>
<g clip-path="url(#clip0_894_550)">
<path d="M12.7741 26.4856C13.8241 27.75 15.7771 27.75 19.6848 27.75H20.3148C24.2226 27.75 26.1765 27.75 27.2265 26.4856M12.7741 26.4856C11.7241 25.2204 12.0846 23.3006 12.8047 19.4594C13.3166 16.7294 13.5721 15.3635 14.5442 14.5567M27.2265 26.4856C28.2765 25.2204 27.916 23.3006 27.1958 19.4594C26.684 16.7294 26.4276 15.3635 25.4555 14.5567M25.4555 14.5567C24.4842 13.75 23.0938 13.75 20.3157 13.75H19.684C16.9058 13.75 15.5163 13.75 14.5442 14.5567" stroke="#EDDBCB"/>
<path d="M17.375 13.75V12.875C17.375 12.1788 17.6516 11.5111 18.1438 11.0188C18.6361 10.5266 19.3038 10.25 20 10.25C20.6962 10.25 21.3639 10.5266 21.8562 11.0188C22.3484 11.5111 22.625 12.1788 22.625 12.875V13.75" stroke="#EDDBCB" stroke-linecap="round"/>
</g>
<defs>
<clipPath id="clip0_894_550">
<rect width="21" height="21" fill="white" transform="translate(9.5 9.5)"/>
</clipPath>
</defs>
</svg>
