<svg width="40" height="40" viewBox="0 0 40 40" fill="none" xmlns="http://www.w3.org/2000/svg">
<rect x="0.5" y="0.5" width="39" height="39" rx="19.5" stroke="#683C11"/>
<path d="M27.1111 17.3L25.3378 27.5114C25.2654 27.9284 25.0502 28.3063 24.7299 28.5785C24.4097 28.8508 24.0049 29 23.5867 29H16.4133C15.9951 29 15.5903 28.8508 15.2701 28.5785C14.9498 28.3063 14.7346 27.9284 14.6622 27.5114L12.8889 17.3M28 14.6H23M23 14.6V12.8C23 12.3226 22.8127 11.8648 22.4793 11.5272C22.1459 11.1896 21.6937 11 21.2222 11H18.7778C18.3063 11 17.8541 11.1896 17.5207 11.5272C17.1873 11.8648 17 12.3226 17 12.8V14.6M23 14.6H17M12 14.6H17" stroke="#683C11" stroke-linecap="round" stroke-linejoin="round"/>
</svg>
