<svg width="145" height="34" viewBox="0 0 145 34" fill="none" xmlns="http://www.w3.org/2000/svg">
<g clip-path="url(#clip0_834_359)">
<path d="M44.3128 19.9028V14.5533H44.1516C43.773 14.5533 43.5071 14.5053 43.3621 14.4173C43.217 14.3294 43.1445 14.1695 43.1445 13.9536C43.1445 13.7457 43.2009 13.6017 43.3218 13.5058C43.4426 13.4178 43.6279 13.3698 43.8938 13.3698H45.0943C45.2474 13.3698 45.3602 13.4018 45.4488 13.4658C45.5294 13.5298 45.5777 13.6097 45.5777 13.7137V14.2814C45.9886 13.9056 46.3915 13.6257 46.7943 13.4418C47.1972 13.2579 47.6081 13.1699 48.0431 13.1699C48.8891 13.1699 49.5578 13.4338 50.0412 13.9536C50.5247 14.4733 50.7664 15.201 50.7664 16.1205V19.9028H51.1611C51.4431 19.9028 51.6446 19.9507 51.7735 20.0387C51.8943 20.1346 51.9588 20.2786 51.9588 20.4785C51.9588 20.6944 51.8943 20.8463 51.7574 20.9423C51.6284 21.0302 51.3948 21.0782 51.0564 21.0782H49.1953C48.8327 21.0782 48.6071 21.0382 48.5024 20.9503C48.3976 20.8623 48.3493 20.7104 48.3493 20.4785C48.3493 20.2626 48.4057 20.1107 48.5265 20.0307C48.6474 19.9507 48.8649 19.9028 49.1953 19.9028H49.4934V16.4324C49.4934 15.7847 49.3403 15.2889 49.0502 14.9451C48.7521 14.6012 48.3171 14.4333 47.7531 14.4333C47.1891 14.4333 46.6735 14.6252 46.2384 15.0091C45.8033 15.3929 45.5777 15.8647 45.5777 16.4324V19.9028H45.8678C46.2062 19.9028 46.4317 19.9427 46.5526 20.0307C46.6735 20.1107 46.7299 20.2626 46.7299 20.4785C46.7299 20.7104 46.6815 20.8703 46.5768 20.9503C46.472 21.0302 46.2303 21.0782 45.8355 21.0782H43.8535C43.6199 21.0782 43.4507 21.0302 43.3379 20.9343C43.2251 20.8383 43.1687 20.6864 43.1687 20.4785C43.1687 20.2546 43.2332 20.1027 43.3701 20.0227C43.499 19.9427 43.7569 19.9028 44.1355 19.9028H44.3128Z" fill="#683C11"/>
<path d="M62.1831 17.2321C62.1831 18.4236 61.7722 19.3991 60.9585 20.1508C60.1367 20.9104 59.0812 21.2862 57.776 21.2862C56.4708 21.2862 55.4153 20.9104 54.6016 20.1508C53.7798 19.3911 53.377 18.4236 53.377 17.2321C53.377 16.0407 53.7879 15.0731 54.6016 14.3135C55.4234 13.5619 56.4789 13.186 57.776 13.186C59.0732 13.186 60.1367 13.5619 60.9585 14.3215C61.7803 15.0811 62.1912 16.0487 62.1912 17.2321H62.1831ZM57.768 20.1108C58.63 20.1108 59.3391 19.8389 59.8869 19.2952C60.4429 18.7514 60.7168 18.0637 60.7168 17.2241C60.7168 16.3845 60.4348 15.6969 59.8869 15.1451C59.331 14.6014 58.63 14.3215 57.768 14.3215C56.9059 14.3215 56.2049 14.5934 55.6571 15.1451C55.1011 15.6889 54.8272 16.3845 54.8272 17.2241C54.8272 18.0637 55.1011 18.7594 55.649 19.2952C56.1969 19.8309 56.9059 20.1028 57.768 20.1028V20.1108Z" fill="#683C11"/>
<path d="M64.4307 20.4787V18.9914C64.4307 18.7435 64.479 18.5756 64.5676 18.4636C64.6563 18.3597 64.8093 18.3037 65.0188 18.3037C65.2525 18.3037 65.4297 18.4556 65.5667 18.7675C65.6553 18.9594 65.7359 19.0953 65.8084 19.1913C66.042 19.4951 66.3885 19.735 66.8477 19.9109C67.307 20.0869 67.8146 20.1828 68.3705 20.1828C68.9667 20.1828 69.4421 20.0629 69.7966 19.823C70.1511 19.5831 70.3364 19.2712 70.3364 18.8794C70.3364 18.4876 70.1913 18.1997 69.9013 18.0398C69.6113 17.8719 69.1198 17.7919 68.4188 17.7919H67.9596C66.8155 17.7919 65.9454 17.592 65.3491 17.2002C64.7529 16.8084 64.4468 16.2327 64.4468 15.481C64.4468 14.7294 64.7368 14.1776 65.325 13.7698C65.9131 13.362 66.7349 13.1621 67.7904 13.1621C68.2255 13.1621 68.6605 13.2181 69.1117 13.338C69.5629 13.458 69.7966 13.5139 69.8207 13.5139C69.8852 13.5139 69.998 13.458 70.1752 13.354C70.3525 13.2501 70.5217 13.1941 70.6909 13.1941C70.8842 13.1941 71.0212 13.2661 71.1179 13.402C71.2146 13.5379 71.2549 13.7458 71.2549 14.0257V15.0012C71.2549 15.2971 71.2065 15.513 71.1179 15.6409C71.0293 15.7689 70.8842 15.8329 70.6909 15.8329C70.5217 15.8329 70.3122 15.6889 70.0705 15.4091C69.9013 15.2171 69.7563 15.0652 69.6435 14.9693C69.3454 14.6974 69.0312 14.4975 68.6928 14.3775C68.3544 14.2576 67.9596 14.2016 67.5084 14.2016C66.9847 14.2016 66.5577 14.3136 66.2354 14.5455C65.9131 14.7774 65.752 15.0732 65.752 15.425C65.752 15.7769 65.9131 16.0248 66.2435 16.1767C66.5738 16.3286 67.2828 16.4166 68.3785 16.4326C69.5468 16.4566 70.3928 16.6645 70.9326 17.0403C71.4724 17.4161 71.7383 17.9918 71.7383 18.7835C71.7383 19.5751 71.4402 20.1348 70.844 20.5826C70.2477 21.0304 69.4501 21.2623 68.443 21.2623C68.1207 21.2623 67.7662 21.2303 67.3795 21.1743C66.9847 21.1184 66.4932 21.0144 65.897 20.8785C65.7037 21.0064 65.5345 21.1024 65.3894 21.1663C65.2525 21.2303 65.1316 21.2623 65.0349 21.2623C64.8416 21.2623 64.6885 21.1903 64.5837 21.0544C64.479 20.9185 64.4307 20.7186 64.4307 20.4627V20.4787Z" fill="#683C11"/>
<path d="M75.5894 17.5917C75.6377 18.3913 75.9117 19.015 76.4112 19.4548C76.9107 19.8946 77.5956 20.1105 78.4657 20.1105C79.1183 20.1105 79.8354 19.9346 80.6089 19.5908C81.3823 19.2469 81.8496 19.071 82.0108 19.071C82.1719 19.071 82.3169 19.127 82.4297 19.2309C82.5425 19.3349 82.5989 19.4708 82.5989 19.6228C82.5989 19.7747 82.5425 19.9346 82.4217 20.0626C82.3008 20.1985 82.1155 20.3264 81.8577 20.4544C81.2937 20.7262 80.7216 20.9341 80.1254 21.0781C79.5292 21.222 78.933 21.294 78.3449 21.294C77.0638 21.294 76.0486 20.9262 75.2752 20.1985C74.5098 19.4708 74.123 18.4953 74.123 17.2879C74.123 16.0804 74.5259 15.0649 75.3396 14.2973C76.1534 13.5376 77.2088 13.1538 78.5141 13.1538C79.6984 13.1538 80.6733 13.5056 81.4548 14.2253C82.2363 14.937 82.6231 15.8006 82.6231 16.8081C82.6231 17.1199 82.5586 17.3278 82.4217 17.4318C82.2847 17.5357 81.9302 17.5917 81.3501 17.5917H75.5733H75.5894ZM75.6297 16.4962H81.1003C81.0198 15.8325 80.7378 15.3048 80.2624 14.897C79.787 14.4892 79.2069 14.2893 78.5221 14.2893C77.7728 14.2893 77.1524 14.4812 76.6368 14.873C76.1292 15.2648 75.7908 15.8006 75.6297 16.4882V16.4962Z" fill="#683C11"/>
<path d="M91.059 13.8335C91.333 13.8335 91.5344 13.8815 91.6633 13.9774C91.7922 14.0734 91.8486 14.2253 91.8486 14.4252C91.8486 14.6171 91.7922 14.769 91.6714 14.865C91.5505 14.9609 91.3733 15.0089 91.1396 15.0089H87.7316V17.7916C87.7316 18.7032 87.8524 19.3029 88.0861 19.5908C88.3278 19.8786 88.7306 20.0226 89.3107 20.0226C89.8183 20.0226 90.4306 19.8786 91.1396 19.5828C91.8486 19.2869 92.2918 19.143 92.461 19.143C92.614 19.143 92.751 19.199 92.8557 19.3109C92.9685 19.4228 93.0169 19.5588 93.0169 19.7187C93.0169 19.9026 92.9524 20.0625 92.8074 20.1985C92.6704 20.3344 92.4368 20.4704 92.1064 20.5983C91.5586 20.8142 91.0671 20.9741 90.624 21.0701C90.1809 21.166 89.77 21.222 89.3832 21.222C88.7306 21.222 88.1747 21.118 87.7316 20.9101C87.2884 20.7022 86.95 20.3904 86.7325 19.9826C86.6197 19.7907 86.5391 19.5588 86.4908 19.2869C86.4424 19.023 86.4183 18.6072 86.4183 18.0555V15.0089H84.9922C84.7586 15.0089 84.5894 14.9609 84.4766 14.873C84.3718 14.777 84.3154 14.6331 84.3154 14.4252C84.3154 14.1933 84.3879 14.0414 84.533 13.9614C84.678 13.8815 84.9922 13.8335 85.4676 13.8335H86.4183V11.6825C86.4183 11.4426 86.4666 11.2667 86.5714 11.1547C86.6761 11.0428 86.8372 10.9868 87.0548 10.9868C87.3045 10.9868 87.4737 11.0588 87.5704 11.1947C87.6671 11.3307 87.7154 11.6505 87.7154 12.1463V13.8415H91.0349L91.059 13.8335Z" fill="#683C11"/>
<path d="M101.025 20.015C100.566 20.4228 100.067 20.7427 99.5268 20.9586C98.9869 21.1745 98.431 21.2864 97.859 21.2864C97.0211 21.2864 96.3523 21.0545 95.8367 20.5907C95.3211 20.127 95.0713 19.5272 95.0713 18.7916C95.0713 17.912 95.4097 17.2323 96.0945 16.7445C96.7793 16.2568 97.7301 16.0169 98.9628 16.0169C99.285 16.0169 99.6154 16.0409 99.9457 16.0809C100.276 16.1208 100.614 16.1848 100.961 16.2808V16.2248C100.961 15.5851 100.808 15.1133 100.502 14.8095C100.195 14.5056 99.7121 14.3537 99.0595 14.3537C98.6244 14.3537 98.1329 14.4736 97.5931 14.7055C97.0533 14.9374 96.6988 15.0573 96.5296 15.0573C96.3684 15.0573 96.2315 14.9934 96.1267 14.8574C96.022 14.7295 95.9656 14.5616 95.9656 14.3537C95.9656 14.0258 96.2718 13.746 96.8921 13.5221C97.5125 13.2982 98.3021 13.1782 99.2689 13.1782C100.236 13.1782 101.001 13.4261 101.509 13.9219C102.016 14.4176 102.266 15.1533 102.266 16.1288V19.9111H102.677C103.072 19.9111 103.338 19.951 103.475 20.039C103.612 20.119 103.676 20.2709 103.676 20.4868C103.676 20.6867 103.62 20.8386 103.507 20.9346C103.394 21.0385 103.225 21.0865 102.999 21.0865H101.678C101.517 21.0865 101.388 21.0385 101.291 20.9426C101.186 20.8466 101.122 20.7107 101.09 20.5348L101.025 20.023V20.015ZM100.961 17.3922C100.655 17.2963 100.357 17.2163 100.067 17.1683C99.7765 17.1204 99.4945 17.0964 99.2045 17.0964C98.3424 17.0964 97.6576 17.2403 97.158 17.5282C96.6585 17.816 96.4087 18.2079 96.4087 18.6956C96.4087 19.0714 96.5618 19.3833 96.876 19.6312C97.1903 19.8791 97.585 19.999 98.0685 19.999C98.7775 19.999 99.4381 19.8151 100.05 19.4473C100.655 19.0794 100.961 18.6956 100.961 18.2878V17.3842V17.3922Z" fill="#683C11"/>
<path d="M108.864 11.3547H107.438C106.898 11.3547 106.552 11.3147 106.415 11.2268C106.278 11.1388 106.214 10.9869 106.214 10.755C106.214 10.5551 106.27 10.4032 106.383 10.3072C106.496 10.2112 106.665 10.1553 106.882 10.1553H109.654C109.807 10.1553 109.92 10.1873 110.008 10.2432C110.089 10.3072 110.137 10.3872 110.137 10.4911V19.8947H112.78C112.989 19.8947 113.151 19.9427 113.247 20.0306C113.344 20.1266 113.392 20.2705 113.392 20.4704C113.392 20.7023 113.344 20.8542 113.247 20.9422C113.151 21.0302 112.973 21.0701 112.707 21.0701H106.504C106.286 21.0701 106.117 21.0222 106.004 20.9182C105.891 20.8223 105.835 20.6703 105.835 20.4704C105.835 20.2705 105.891 20.1346 106.012 20.0386C106.133 19.9427 106.31 19.8947 106.544 19.8947H108.872V11.3547H108.864Z" fill="#683C11"/>
<path d="M123.174 20.6303C123.174 21.4059 123.133 21.9577 123.053 22.2855C122.972 22.6133 122.835 22.8932 122.65 23.1411C122.336 23.5489 121.893 23.8688 121.329 24.0767C120.765 24.2926 120.096 24.3965 119.322 24.3965C118.686 24.3965 118.219 24.3325 117.92 24.2126C117.622 24.0926 117.477 23.8927 117.477 23.6289C117.477 23.4529 117.55 23.301 117.695 23.1731C117.84 23.0451 118.009 22.9812 118.202 22.9812C118.356 22.9812 118.589 23.0052 118.903 23.0451C119.218 23.0851 119.459 23.1091 119.62 23.1091C120.45 23.1091 121.039 22.9172 121.385 22.5414C121.731 22.1656 121.909 21.5179 121.909 20.5983V19.5908C121.57 19.9826 121.192 20.2704 120.773 20.4544C120.354 20.6383 119.878 20.7262 119.347 20.7262C118.299 20.7262 117.429 20.3824 116.744 19.6867C116.059 18.991 115.713 18.1195 115.713 17.056C115.713 15.9925 116.067 15.1049 116.768 14.4012C117.469 13.6975 118.348 13.3457 119.395 13.3457C119.83 13.3457 120.249 13.4257 120.66 13.5856C121.071 13.7455 121.49 13.9854 121.909 14.3053V13.7055C121.909 13.5856 121.949 13.5056 122.021 13.4497C122.094 13.3937 122.215 13.3697 122.376 13.3697H123.649C123.875 13.3697 124.044 13.4177 124.157 13.5136C124.269 13.6096 124.326 13.7535 124.326 13.9534C124.326 14.1773 124.253 14.3292 124.116 14.4172C123.979 14.5052 123.713 14.5531 123.335 14.5531H123.182V20.6383L123.174 20.6303ZM119.524 14.6011C118.791 14.6011 118.194 14.825 117.727 15.2728C117.26 15.7206 117.026 16.3043 117.026 17.024C117.026 17.7436 117.26 18.3114 117.727 18.7672C118.194 19.2229 118.791 19.4468 119.524 19.4468C120.257 19.4468 120.853 19.2229 121.32 18.7672C121.788 18.3114 122.021 17.7356 122.021 17.024C122.021 16.3123 121.788 15.7366 121.32 15.2808C120.853 14.825 120.257 14.5931 119.524 14.5931V14.6011Z" fill="#683C11"/>
<path d="M130.868 19.9029H133.567C133.785 19.9029 133.946 19.9508 134.051 20.0388C134.156 20.1347 134.204 20.2787 134.204 20.4786C134.204 20.7105 134.156 20.8624 134.059 20.9504C133.962 21.0383 133.777 21.0783 133.519 21.0783H127.001C126.775 21.0783 126.606 21.0303 126.493 20.9264C126.381 20.8304 126.324 20.6785 126.324 20.4786C126.324 20.2787 126.381 20.1427 126.501 20.0468C126.622 19.9508 126.8 19.9029 127.033 19.9029H129.595V14.5454H127.952C127.718 14.5454 127.549 14.4974 127.428 14.3934C127.307 14.2895 127.243 14.1456 127.243 13.9537C127.243 13.7617 127.299 13.6178 127.412 13.5219C127.525 13.4259 127.694 13.3779 127.919 13.3779H130.385C130.538 13.3779 130.659 13.4099 130.739 13.4739C130.828 13.5378 130.868 13.6178 130.868 13.7218V19.9108V19.9029ZM129.313 10.9631C129.313 10.3633 129.37 9.98752 129.474 9.82759C129.587 9.67567 129.821 9.5957 130.175 9.5957C130.53 9.5957 130.756 9.65967 130.868 9.79561C130.981 9.92355 131.038 10.2354 131.038 10.7232C131.038 11.2109 130.989 11.4988 130.884 11.6108C130.78 11.7227 130.546 11.7787 130.183 11.7787C129.821 11.7787 129.595 11.7227 129.483 11.6188C129.37 11.5148 129.321 11.2909 129.321 10.9631H129.313Z" fill="#683C11"/>
<path d="M142.35 20.015C141.89 20.4228 141.391 20.7427 140.851 20.9586C140.311 21.1745 139.755 21.2864 139.183 21.2864C138.345 21.2864 137.677 21.0545 137.161 20.5907C136.645 20.127 136.396 19.5272 136.396 18.7916C136.396 17.912 136.734 17.2323 137.419 16.7445C138.104 16.2568 139.054 16.0169 140.287 16.0169C140.609 16.0169 140.94 16.0409 141.27 16.0809C141.6 16.1208 141.939 16.1848 142.285 16.2808V16.2248C142.285 15.5851 142.132 15.1133 141.826 14.8095C141.52 14.5056 141.036 14.3537 140.392 14.3537C139.957 14.3537 139.465 14.4736 138.925 14.7055C138.386 14.9374 138.031 15.0573 137.854 15.0573C137.693 15.0573 137.556 14.9934 137.451 14.8574C137.346 14.7295 137.29 14.5616 137.29 14.3537C137.29 14.0258 137.596 13.746 138.216 13.5221C138.837 13.2982 139.626 13.1782 140.593 13.1782C141.56 13.1782 142.325 13.4261 142.833 13.9219C143.341 14.4176 143.59 15.1533 143.59 16.1288V19.9111H144.001C144.396 19.9111 144.662 19.951 144.799 20.039C144.936 20.127 145 20.2709 145 20.4868C145 20.6867 144.944 20.8386 144.831 20.9346C144.718 21.0385 144.549 21.0865 144.324 21.0865H143.002C142.849 21.0865 142.72 21.0385 142.615 20.9426C142.511 20.8466 142.446 20.7107 142.414 20.5348L142.35 20.023V20.015ZM142.285 17.3922C141.979 17.2963 141.681 17.2163 141.391 17.1683C141.101 17.1204 140.819 17.0964 140.529 17.0964C139.667 17.0964 138.982 17.2403 138.482 17.5282C137.983 17.816 137.733 18.2079 137.733 18.6956C137.733 19.0714 137.886 19.3833 138.2 19.6312C138.514 19.8791 138.909 19.999 139.393 19.999C140.102 19.999 140.762 19.8151 141.375 19.4473C141.987 19.0794 142.285 18.6956 142.285 18.2878V17.3842V17.3922Z" fill="#683C11"/>
<path d="M20.1099 18.1912L25.2341 17.2077C25.4678 17.1597 25.4678 16.8318 25.2341 16.7839L20.1099 15.8003C19.9568 15.7683 19.8843 15.6004 19.973 15.4725L22.0597 12.4019C22.1967 12.21 21.9549 11.9701 21.7616 12.1061L19.1028 13.8892C18.9739 13.9772 18.7966 13.9052 18.7725 13.7533L17.3464 6.45273C17.2981 6.22084 16.9677 6.22084 16.9194 6.45273L15.4933 13.7533C15.4611 13.9052 15.2919 13.9772 15.163 13.8892L12.5042 12.1061C12.3108 11.9701 12.0691 12.21 12.2061 12.4019L14.2928 15.4725C14.3815 15.6004 14.309 15.7763 14.1559 15.8003L9.03168 16.7839C8.79803 16.8318 8.79803 17.1597 9.03168 17.2077L14.1559 18.1912C14.309 18.2232 14.3815 18.3911 14.2928 18.519L12.2061 21.5896C12.0691 21.7815 12.3108 22.0214 12.5042 21.8855L15.163 20.1023C15.2919 20.0143 15.4691 20.0863 15.4933 20.2382L16.9194 27.5388C16.9677 27.7707 17.2981 27.7707 17.3464 27.5388L18.7725 20.2382C18.8047 20.0863 18.9739 20.0143 19.1028 20.1023L21.7616 21.8855C21.9549 22.0214 22.1967 21.7815 22.0597 21.5896L19.973 18.519C19.8843 18.3911 19.9568 18.2152 20.1099 18.1912Z" fill="#FFD833"/>
<path d="M17.129 34C7.68628 34 0 26.3716 0 17C0 7.62841 7.68628 0 17.129 0C17.4835 0 17.7735 0.287865 17.7735 0.639699C17.7735 0.991533 17.4835 1.2794 17.129 1.2794C8.39529 1.2794 1.2891 8.33208 1.2891 17C1.2891 25.6679 8.39529 32.7206 17.129 32.7206C17.4835 32.7206 17.7735 33.0085 17.7735 33.3603C17.7735 33.7121 17.4835 34 17.129 34Z" fill="url(#paint0_linear_834_359)"/>
<path d="M17.1289 34C16.7744 34 16.4844 33.7121 16.4844 33.3603C16.4844 33.0085 16.7744 32.7206 17.1289 32.7206C25.8626 32.7206 32.9688 25.6679 32.9688 17C32.9688 8.33208 25.8626 1.2794 17.1289 1.2794C16.7744 1.2794 16.4844 0.991533 16.4844 0.639699C16.4844 0.287865 16.7744 0 17.1289 0C26.5716 0 34.2579 7.62841 34.2579 17C34.2579 26.3716 26.5716 34 17.1289 34Z" fill="url(#paint1_linear_834_359)"/>
<path d="M17.1289 31.569C9.03976 31.569 2.44922 25.036 2.44922 16.9998C2.44922 8.96359 9.03976 2.43066 17.1289 2.43066C17.4834 2.43066 17.7734 2.71853 17.7734 3.07036C17.7734 3.4222 17.4834 3.71006 17.1289 3.71006C9.74877 3.71006 3.73832 9.67526 3.73832 16.9998C3.73832 24.3244 9.74877 30.2896 17.1289 30.2896C17.4834 30.2896 17.7734 30.5774 17.7734 30.9293C17.7734 31.2811 17.4834 31.569 17.1289 31.569Z" fill="url(#paint2_linear_834_359)"/>
<path d="M17.1289 31.569C16.7744 31.569 16.4844 31.2811 16.4844 30.9293C16.4844 30.5774 16.7744 30.2896 17.1289 30.2896C24.509 30.2896 30.5195 24.3244 30.5195 16.9998C30.5195 9.67526 24.509 3.71006 17.1289 3.71006C16.7744 3.71006 16.4844 3.4222 16.4844 3.07036C16.4844 2.71853 16.7744 2.43066 17.1289 2.43066C25.2181 2.43066 31.8086 8.96359 31.8086 16.9998C31.8086 25.036 25.2261 31.569 17.1289 31.569Z" fill="url(#paint3_linear_834_359)"/>
</g>
<defs>
<linearGradient id="paint0_linear_834_359" x1="8.88676" y1="0" x2="8.88676" y2="34" gradientUnits="userSpaceOnUse">
<stop stop-color="#CA9E67"/>
<stop offset="0.8" stop-color="#F7DEC6" stop-opacity="0"/>
</linearGradient>
<linearGradient id="paint1_linear_834_359" x1="25.3711" y1="34" x2="25.3711" y2="0" gradientUnits="userSpaceOnUse">
<stop stop-color="#CA9E67"/>
<stop offset="0.8" stop-color="#F7DEC6" stop-opacity="0"/>
</linearGradient>
<linearGradient id="paint2_linear_834_359" x1="10.1113" y1="2.43066" x2="10.1113" y2="31.569" gradientUnits="userSpaceOnUse">
<stop stop-color="#CA9E67"/>
<stop offset="0.8" stop-color="#F7DEC6" stop-opacity="0"/>
</linearGradient>
<linearGradient id="paint3_linear_834_359" x1="24.1465" y1="31.569" x2="24.1465" y2="2.43066" gradientUnits="userSpaceOnUse">
<stop stop-color="#CA9E67"/>
<stop offset="0.8" stop-color="#F7DEC6" stop-opacity="0"/>
</linearGradient>
<clipPath id="clip0_834_359">
<rect width="145" height="34" fill="white"/>
</clipPath>
</defs>
</svg>
