<svg width="45" height="57" viewBox="0 0 45 57" fill="none" xmlns="http://www.w3.org/2000/svg">
<path d="M14.4068 25.3209L0.476391 27.9365C-0.1588 28.0641 -0.1588 28.9359 0.476391 29.0635L14.4068 31.6791C14.823 31.7641 15.0201 32.2107 14.7791 32.5509L9.10623 40.7166C8.73388 41.2269 9.39097 41.8649 9.91665 41.5034L17.1447 36.7613C17.4951 36.5274 17.977 36.7188 18.0427 37.1228L21.9196 56.5375C22.051 57.1542 22.949 57.1542 23.0804 56.5375L26.9573 37.1228C27.0449 36.7188 27.5049 36.5274 27.8553 36.7613L35.0834 41.5034C35.609 41.8649 36.2661 41.2269 35.8938 40.7166L30.2209 32.5509C29.9799 32.2107 30.177 31.7429 30.5932 31.6791L44.5236 29.0635C45.1588 28.9359 45.1588 28.0641 44.5236 27.9365L30.5932 25.3209C30.177 25.2359 29.9799 24.7893 30.2209 24.4491L35.8938 16.2834C36.2661 15.7731 35.609 15.1351 35.0834 15.4966L27.8553 20.2387C27.5049 20.4726 27.023 20.2812 26.9573 19.8772L23.0804 0.462505C22.949 -0.154171 22.051 -0.154171 21.9196 0.462505L18.0427 19.8772C17.9551 20.2812 17.4951 20.4726 17.1447 20.2387L9.91665 15.4966C9.39097 15.1351 8.73388 15.7731 9.10623 16.2834L14.7791 24.4491C15.0201 24.7893 14.823 25.2571 14.4068 25.3209Z" fill="#F8EBE2"/>
</svg>
